# xmcd
#
# Track frame offsets: 
#        150
#        12900
#        24013
#        41247
#        58102
#        73679
#        90940
#        105729
#        117027
#        130464
#        145559
#        162989
#        178772
#
# Disc length: 2609 seconds
#
# Revision: 0
# Processed by: cddbd v1.5.2PL0 Copyright (c) Steve Scherf et al.
# Submitted via: ExactAudioCopyFreeDBPlugin 1.0
#
DISCID=a70a2f0d
DTITLE=Various Artist - Various Artists
DYEAR=2004
DGENRE=Country
TTITLE0=Alabama - I'm In A Hurry (And I Don't Know Why)
TTITLE1=Alan Jackson - Chattahoochee
TTITLE2=Blake Shelton - Austin
TTITLE3=Brad Paisley - Celebrity
TTITLE4=Brooks and Dunn - My Maria
TTITLE5=Dixie Chicks - Ready To Run
TTITLE6=Faith Hill - This Kiss
TTITLE7=John Michael Montgomery - Sold (The Grundy County Auction Inci
TTITLE7=dent)
TTITLE8=Keith Urban - Where The Blacktop Ends
TTITLE9=Kenny Chesney - Don't Happen Twice
TTITLE10=Lonestar - With Me
TTITLE11=Trick Pony - On A Night Like This
TTITLE12=Trisha Yearwood - She's In Love With A Boy
EXTD=
EXTT0=
EXTT1=
EXTT2=
EXTT3=
EXTT4=
EXTT5=
EXTT6=
EXTT7=
EXTT8=
EXTT9=
EXTT10=
EXTT11=
EXTT12=
PLAYORDER=
